<?xml version="1.0" encoding="iso-8859-1"?>
<!-- Generator: Adobe Illustrator 19.0.0, SVG Export Plug-In . SVG Version: 6.00 Build 0)  -->
<svg version="1.1" id="Capa_1" xmlns="http://www.w3.org/2000/svg" xmlns:xlink="http://www.w3.org/1999/xlink" x="0px" y="0px"
	 viewBox="0 0 512 512" style="enable-background:new 0 0 512 512;" xml:space="preserve">
<circle style="fill:#FFD93B;" cx="256" cy="256" r="256"/>
<path style="fill:#F4C534;" d="M512,256c0,141.44-114.64,256-256,256c-80.48,0-152.32-37.12-199.28-95.28
	c43.92,35.52,99.84,56.72,160.72,56.72c141.36,0,256-114.56,256-256c0-60.88-21.2-116.8-56.72-160.72
	C474.8,103.68,512,175.52,512,256z"/>
<g>
	<!-- Winking eye (left) - curved line -->
	<path style="fill:#3E4347;" d="M120,200c0,0,20-12,40-12s40,12,40,12s-20,8-40,8S120,200,120,200z"/>
	<!-- Open eye (right) - normal circle -->
	<circle style="fill:#3E4347;" cx="356" cy="200" r="28"/>
	<circle style="fill:#FFFFFF;" cx="366" cy="192" r="10"/>
</g>
<!-- Puckered kiss lips -->
<ellipse style="fill:#E24B4B;" cx="240" cy="320" rx="32" ry="28" transform="rotate(-10 240 320)"/>
<!-- Small floating heart coming from lips -->
<g>
	<path style="fill:#FF6B9D;" d="M380,240c-4.4,0-8.4,1.6-11.6,4c-3.2-2.4-7.2-4-11.6-4c-10.4,0-18.8,8.4-18.8,18.8
		c0,15.6,30.4,35.2,30.4,35.2s30.4-19.6,30.4-35.2C398.8,248.4,390.4,240,380,240z"/>
</g>
<g>
</g>
<g>
</g>
<g>
</g>
<g>
</g>
<g>
</g>
<g>
</g>
<g>
</g>
<g>
</g>
<g>
</g>
<g>
</g>
<g>
</g>
<g>
</g>
<g>
</g>
<g>
</g>
<g>
</g>
</svg>
